<?xml version="1.0" encoding="UTF-8"?>
<svg version="1.1" xmlns="http://www.w3.org/2000/svg" width="908" height="418">
<path d="M0 0 C299.64 0 599.28 0 908 0 C908 137.94 908 275.88 908 418 C608.36 418 308.72 418 0 418 C0 280.06 0 142.12 0 0 Z " fill="#1A212C" transform="translate(0,0)"/>
<path d="M0 0 C0.67822311 -0.00350464 1.35644623 -0.00700928 2.05522156 -0.01062012 C4.30262414 -0.01943993 6.54971321 -0.01358692 8.79711914 -0.00683594 C10.35649171 -0.00818268 11.91586386 -0.01012328 13.47523499 -0.01263428 C16.7462259 -0.015586 20.01710769 -0.01128698 23.28808594 -0.00195312 C27.48261437 0.00943207 31.67688661 0.00288827 35.8714056 -0.00909805 C39.09271679 -0.01632344 42.31396721 -0.01402545 45.53528023 -0.00884247 C47.08185417 -0.00750736 48.62843362 -0.00914885 50.17500114 -0.01380157 C52.33686822 -0.01887696 54.49832011 -0.01114225 56.66015625 0 C57.89100449 0.00159119 59.12185272 0.00318237 60.38999939 0.00482178 C63.39477539 0.25878906 63.39477539 0.25878906 66.39477539 2.25878906 C66.66163752 4.95419221 66.74295612 7.4172637 66.68774414 10.11035156 C66.6834993 10.88438324 66.67925446 11.65841492 66.67488098 12.4559021 C66.65806537 14.93221583 66.62040934 17.40772065 66.58227539 19.88378906 C66.56723221 21.56086066 66.55354317 23.23794498 66.54125977 24.91503906 C66.5081526 29.02993488 66.45635176 33.14422475 66.39477539 37.25878906 C67.39493179 37.24626099 68.3950882 37.23373291 69.42555237 37.2208252 C79.19211752 37.09901649 88.95872814 36.98155915 98.72538853 36.86763763 C103.7378503 36.80905021 108.75029004 36.74928552 113.76269531 36.68603516 C149.31163261 36.24206984 184.83795925 36.25878906 220.39477539 36.25878906 C220.39477539 95.65878906 220.39477539 155.05878906 220.39477539 216.25878906 C144.82477539 216.25878906 69.25477539 216.25878906 -8.60522461 216.25878906 C-8.64647461 180.99003906 -8.68772461 145.72128906 -8.73022461 109.38378906 C-8.74843262 98.22969238 -8.76664062 87.0755957 -8.78540039 75.58349609 C-8.79443359 62.00854492 -8.79443359 62.00854492 -8.79611206 55.662323 C-8.79798244 51.21072412 -8.80550535 46.7591725 -8.81637573 42.30758667 C-8.8300357 36.63903515 -8.83421778 30.97055291 -8.83136916 25.30198646 C-8.83196532 23.21555372 -8.83596546 21.1291187 -8.84365487 19.04270005 C-8.85352204 16.23623267 -8.85123444 13.43003861 -8.84573364 10.62356567 C-8.85155897 9.79696379 -8.8573843 8.9703619 -8.86338615 8.11871147 C-8.82386202 0.67729098 -7.1548771 0.00925549 0 0 Z " fill="#1A212C" transform="translate(96.605224609375,97.7412109375)"/>
<path d="M0 0 C0.92955051 0.0015486 1.85910102 0.0030972 2.81681973 0.00469273 C3.79631559 0.00242718 4.77581145 0.00016162 5.784989 -0.00217259 C9.0939152 -0.00854398 12.40280076 -0.00768123 15.71173245 -0.00685817 C18.07313741 -0.0098477 20.43454188 -0.01324974 22.7959457 -0.01703578 C28.56035122 -0.02497848 34.32474424 -0.02809134 40.08915495 -0.02864816 C44.77256385 -0.02912257 49.45596935 -0.03117356 54.13937718 -0.03434879 C67.40434624 -0.04315967 80.66930719 -0.04776748 93.9342792 -0.04701831 C95.00796133 -0.04695838 95.00796133 -0.04695838 96.10333401 -0.04689723 C97.17832014 -0.04683591 97.17832014 -0.04683591 98.27502317 -0.04677335 C109.89397042 -0.04636675 121.51288529 -0.05593859 133.13182317 -0.0700356 C145.04897758 -0.08438086 156.96611618 -0.09130681 168.88327944 -0.09044182 C175.57912653 -0.09010921 182.27493967 -0.09288423 188.970779 -0.10361987 C195.26535148 -0.11325969 201.55985199 -0.1134085 207.85442692 -0.10610324 C210.1708336 -0.10505226 212.48724465 -0.10745041 214.80364376 -0.1134637 C217.9537112 -0.12111446 221.1035258 -0.11658508 224.25358731 -0.10883266 C225.18090709 -0.11397622 226.10822688 -0.11911978 227.06364727 -0.12441921 C233.37042418 -0.08986565 233.37042418 -0.08986565 235.59869534 2.1384055 C235.79672082 5.10469675 235.86784266 7.97775646 235.85266262 10.94529027 C235.85734259 12.33006109 235.85734259 12.33006109 235.86211711 13.74280709 C235.87013346 16.85520576 235.86375935 19.96741142 235.8574844 23.07981175 C235.86019265 25.30343556 235.86375264 27.52705847 235.86810452 29.75067967 C235.87725056 35.80424371 235.87367516 41.85773985 235.86734635 47.91130513 C235.86229779 54.23383335 235.8669746 60.55635558 235.87011868 66.87888402 C235.8739953 78.17931628 235.86776337 89.47971393 235.8576 100.78013927 C235.84866408 111.03336577 235.85021599 121.286547 235.85943753 131.53977269 C235.87013218 143.43656258 235.87412906 155.33332494 235.868213 167.23012131 C235.86508807 173.53135773 235.86469824 179.83256292 235.87128597 186.13379735 C235.87704505 192.05658019 235.873089 197.97927715 235.86149746 203.90205067 C235.85884315 206.08138831 235.85962901 208.26073312 235.86402279 210.44006795 C235.86944938 213.40398456 235.86267942 216.36762214 235.85266262 219.33152074 C235.85935479 220.63976732 235.85935479 220.63976732 235.86618215 221.97444314 C235.82699535 227.91010549 235.82699535 227.91010549 233.59869534 230.1384055 C230.45464864 230.33445315 227.39872822 230.40308881 224.25358731 230.38564366 C223.27253146 230.38805808 222.2914756 230.39047249 221.28069079 230.39296007 C217.97248201 230.39862436 214.66446399 230.3899134 211.3562637 230.38132542 C208.99308872 230.38239762 206.62991401 230.38433537 204.26674038 230.38707799 C198.50211844 230.39143365 192.73755881 230.38647027 186.97294378 230.37722769 C180.26594575 230.36685938 173.5589602 230.36691345 166.85195566 230.36740027 C154.88918685 230.36790121 142.92644475 230.3587302 130.96368557 230.34421605 C119.34356343 230.33012482 107.72346481 230.32304538 96.10333401 230.32370824 C95.38754592 230.32374819 94.67175783 230.32378815 93.9342792 230.32382932 C93.21975392 230.32386967 92.50522864 230.32391002 91.76905107 230.3239516 C78.55647275 230.32464068 65.34390445 230.31875616 52.13132937 230.30979839 C47.45099137 230.30677663 42.77065522 230.30571819 38.09031636 230.30526608 C31.79738743 230.30426518 25.50448341 230.29818938 19.21156269 230.28809994 C16.89473774 230.28516685 14.57790992 230.2839512 12.26108319 230.28452748 C9.11296844 230.28501441 5.96492464 230.27939978 2.81681973 230.27211827 C1.88726922 230.27366687 0.95771871 230.27521547 0 230.276811 C-6.28712617 230.25258399 -6.28712617 230.25258399 -7.40130466 229.1384055 C-7.50149716 226.20764619 -7.535689 223.3003757 -7.5282883 220.36911839 C-7.5298483 219.4379196 -7.53140829 218.5067208 -7.53301555 217.54730386 C-7.53702982 214.4018741 -7.53383426 211.25649193 -7.53069919 208.11106175 C-7.53205305 205.86625962 -7.53383289 203.62145772 -7.53600925 201.37665623 C-7.5405855 195.26113535 -7.53879324 189.14563125 -7.53563017 183.03011006 C-7.53310755 176.64571653 -7.53544383 170.26132448 -7.53701633 163.87693089 C-7.5389552 152.46530159 -7.53583738 141.05368163 -7.530757 129.6420539 C-7.52628895 119.2850397 -7.52706488 108.92803669 -7.53167576 98.57102269 C-7.53702143 86.55779199 -7.53902241 74.54456976 -7.53606349 62.53133744 C-7.53450026 56.16696912 -7.5343082 49.80260853 -7.53759998 43.43824071 C-7.5404775 37.45640225 -7.5385052 31.47458506 -7.53270572 25.49274892 C-7.53137749 23.29041519 -7.53177331 21.08807969 -7.53396839 18.88574666 C-7.5366774 15.89303737 -7.53330183 12.90039741 -7.5282883 9.90769261 C-7.53051903 9.02415136 -7.53274975 8.14061011 -7.53504807 7.23029488 C-7.51131401 -0.01064494 -7.21411422 0.0277991 0 0 Z M-0.40130466 9.1384055 C-0.59476676 11.95919164 -0.66169892 14.68151094 -0.6418137 17.50318211 C-0.64352573 18.37665288 -0.64523777 19.25012364 -0.64700168 20.15006322 C-0.65032759 23.10345279 -0.63923996 26.05661849 -0.62835544 29.00998753 C-0.62774316 31.15286504 -0.6280091 33.29574295 -0.62908596 35.43862027 C-0.62953879 41.19418881 -0.61791963 46.94967474 -0.60386509 52.70522374 C-0.59250279 58.09953903 -0.59194035 63.49383389 -0.59051365 68.88816136 C-0.58000531 84.67992042 -0.55208319 100.47166399 -0.52630466 116.2634055 C-0.48505466 151.5321555 -0.44380466 186.8009055 -0.40130466 223.1384055 C75.16869534 223.1384055 150.73869534 223.1384055 228.59869534 223.1384055 C228.59869534 163.7384055 228.59869534 104.3384055 228.59869534 43.1384055 C192.08355586 43.1384055 155.59628882 43.14128665 119.08868557 43.60196751 C114.01588358 43.66510784 108.94302927 43.72376538 103.87017971 43.78293675 C94.11296634 43.8973409 84.35581376 44.01618669 74.59869534 44.1384055 C74.61440579 43.08862523 74.63011624 42.03884495 74.64630276 40.95725316 C74.70052153 37.06979838 74.73501574 33.18237713 74.76349026 29.2946555 C74.77859537 27.6106791 74.7990808 25.92674215 74.8250137 24.24289769 C74.86132255 21.82515557 74.87840381 19.40793258 74.89166409 16.989968 C74.91488987 15.85707844 74.91488987 15.85707844 74.93858486 14.70130223 C74.97431844 12.35432469 74.97431844 12.35432469 74.59869534 9.1384055 C70.948914 6.70521794 69.21279225 6.88523827 64.8640762 6.87961644 C63.84411305 6.87435948 63.84411305 6.87435948 62.80354458 6.86899632 C60.55677214 6.86019625 58.31031471 6.86602126 56.06353909 6.8727805 C54.50320013 6.87143351 52.94286159 6.86949269 51.38252407 6.86698216 C48.11331328 6.86403337 44.84421179 6.86832121 41.5750137 6.87766331 C37.37929467 6.88906721 33.18383125 6.882491 28.98812157 6.87051839 C25.76685293 6.86330119 22.54564518 6.86558689 19.32437474 6.87077397 C17.77697427 6.87211037 16.22956832 6.87046308 14.68217427 6.86581486 C12.52260648 6.86075082 10.36345651 6.86845729 8.20391995 6.87961644 C6.9738673 6.88120763 5.74381466 6.88279881 4.4764877 6.88443822 C1.46958507 6.83937703 1.46958507 6.83937703 -0.40130466 9.1384055 Z " fill="#ECECEC" transform="translate(88.40130466222763,90.8615944981575)"/>
<path d="M0 0 C48.84 0 97.68 0 148 0 C148 9.57 148 19.14 148 29 C118.82854865 30.17836333 89.68449965 30.11861206 60.49310303 30.06866455 C54.43291036 30.05930883 48.37271601 30.05480742 42.31251812 30.05032361 C28.54166602 30.04000653 14.77083856 30.02174695 1 30 C0.67 20.1 0.34 10.2 0 0 Z " fill="#DAC9B3" transform="translate(169,97)"/>
<path d="M0 0 C3.63 0 7.26 0 11 0 C11.33 6.27 11.66 12.54 12 19 C13.98 17.68 15.96 16.36 18 15 C24.28477382 14.18906144 28.79146624 15.36406423 34 19 C37.75901383 22.55916753 40.65854188 26.51634145 41.37109375 31.69921875 C41.53195481 38.93796658 40.76051559 44.34014268 36 50 C31.89977761 53.50612841 27.34336646 54.81251346 22 55 C17.31986301 54.3490035 13.55322366 53.25712169 10 50 C10 51.32 10 52.64 10 54 C6.7 54 3.4 54 0 54 C0 36.18 0 18.36 0 0 Z " fill="#F4F4F5" transform="translate(698,183)"/>
<path d="M0 0 C6.17561805 2.48883604 9.88762536 5.52533386 12.74609375 11.6796875 C14.58800221 17.06188754 14.85525219 22.69902893 12.4453125 27.92578125 C8.56393057 33.92428059 4.72121824 37.58157324 -2.3515625 39.31640625 C-7.70170397 40.17444781 -11.49083446 39.64493901 -16.1640625 36.81640625 C-20.44903085 33.58769758 -23.05283784 30.57111457 -24.3515625 25.31640625 C-25.28150106 18.1719744 -25.31930585 11.85772154 -20.921875 5.90234375 C-18.33621844 3.29095926 -15.67308693 1.88316305 -12.3515625 0.31640625 C-8.41946626 -1.64964187 -4.10882512 -1.19442591 0 0 Z " fill="#F7F7F7" transform="translate(771.3515625,198.68359375)"/>
<path d="M0 0 C2.01425053 1.21087893 3.60271617 2.44941285 5.27734375 4.09375 C5.78652344 4.56296875 6.29570312 5.0321875 6.8203125 5.515625 C10.23730082 9.07618426 10.98766889 12.26583558 11.27734375 17.09375 C7.64734375 17.09375 4.01734375 17.09375 0.27734375 17.09375 C-0.13515625 16.145 -0.54765625 15.19625 -0.97265625 14.21875 C-2.82961928 10.90274459 -3.32507152 10.36708993 -6.72265625 9.09375 C-11.17624324 8.53614643 -15.34797167 8.61559884 -19.59765625 10.09375 C-24.25469921 14.47684925 -25.96695031 19.24518869 -26.22265625 25.59375 C-25.93905244 32.40969495 -24.02531337 36.95174338 -19.03515625 41.59375 C-14.77703453 43.52195606 -11.32335702 43.94258778 -6.72265625 43.09375 C-2.79511402 40.75393761 -1.80141504 39.25126759 0.27734375 35.09375 C3.90734375 35.09375 7.53734375 35.09375 11.27734375 35.09375 C10.79901475 40.11620446 9.44044833 43.1612416 6.27734375 47.09375 C-1.3817221 52.96026853 -8.2215231 54.15434161 -17.72265625 53.09375 C-24.45264122 51.03430105 -30.2453127 47.31636477 -33.72265625 41.09375 C-37.41602952 31.96894544 -38.23889487 21.41380085 -34.5546875 12.16015625 C-27.57431353 -0.43445952 -13.52466533 -4.50175374 0 0 Z " fill="#F7F7F8" transform="translate(400.72265625,184.90625)"/>
<path d="M0 0 C3.87841627 2.11329154 6.03827564 3.90818426 7.7421875 8.06640625 C9.15725871 13.63440383 8.77174775 19.42531572 8.6875 25.125 C8.67847656 26.28580078 8.66945313 27.44660156 8.66015625 28.64257812 C8.63671162 31.49110108 8.60389522 34.33919078 8.5625 37.1875 C5.5925 37.1875 2.6225 37.1875 -0.4375 37.1875 C-1.0975 35.8675 -1.7575 34.5475 -2.4375 33.1875 C-3.613125 34.1465625 -3.613125 34.1465625 -4.8125 35.125 C-9.29543444 38.64730563 -12.85248647 38.85368625 -18.4375 38.1875 C-21.8586158 36.94638092 -24.58000088 35.26869455 -26.875 32.375 C-27.97296072 28.10515277 -27.98814661 24.53352504 -26.3125 20.4375 C-23.6489743 17.24126916 -20.65254155 15.45356615 -16.44970703 14.94873047 C-14.31279086 14.8935297 -12.19869175 14.92467317 -10.0625 15 C-9.32644531 15.01353516 -8.59039062 15.02707031 -7.83203125 15.04101562 C-6.03353257 15.07605131 -4.23541578 15.12984712 -2.4375 15.1875 C-2.7675 12.8775 -3.0975 10.5675 -3.4375 8.1875 C-7.3975 8.1875 -11.3575 8.1875 -15.4375 8.1875 C-15.7675 9.5075 -16.0975 10.8275 -16.4375 12.1875 C-19.7375 12.1875 -23.0375 12.1875 -26.4375 12.1875 C-25.41076851 6.48343614 -23.68564801 3.98190033 -19.19140625 0.3515625 C-13.59317156 -3.36396965 -5.84896772 -2.83783249 0 0 Z " fill="#F4F5F5" transform="translate(467.4375,199.8125)"/>
<path d="M0 0 C3.3 0 6.6 0 10 0 C11.29935464 2.51712189 12.58954372 5.03829087 13.875 7.5625 C14.42220703 8.61920898 14.42220703 8.61920898 14.98046875 9.69726562 C17.19942197 14.07465515 18.81066956 18.23641861 20 23 C20.66 23 21.32 23 22 23 C22.23783203 22.12601563 22.23783203 22.12601563 22.48046875 21.234375 C27.53846154 3.46153846 27.53846154 3.46153846 31 0 C32.68608966 -0.07205511 34.37500659 -0.08386068 36.0625 -0.0625 C36.98160156 -0.05347656 37.90070312 -0.04445312 38.84765625 -0.03515625 C39.55792969 -0.02355469 40.26820313 -0.01195312 41 0 C40.38568443 3.59361553 39.41211963 6.70303963 37.97460938 10.04980469 C37.55747681 11.02721619 37.14034424 12.00462769 36.71057129 13.01165771 C36.03399475 14.57596527 36.03399475 14.57596527 35.34375 16.171875 C34.88141968 17.25003479 34.41908936 18.32819458 33.94274902 19.43902588 C32.96656109 21.71277523 31.98803079 23.98552017 31.00732422 26.25732422 C29.50060231 29.74860437 28.00167784 33.24315338 26.50390625 36.73828125 C25.55514388 38.94550873 24.60594042 41.15254667 23.65625 43.359375 C23.20519897 44.41034363 22.75414795 45.46131226 22.28942871 46.54412842 C21.87229614 47.50893127 21.45516357 48.47373413 21.02539062 49.46777344 C20.6575647 50.32095154 20.28973877 51.17412964 19.9107666 52.05316162 C19 54 19 54 18 55 C16.31391034 55.07205511 14.62499341 55.08386068 12.9375 55.0625 C12.01839844 55.05347656 11.09929688 55.04445312 10.15234375 55.03515625 C9.44207031 55.02355469 8.73179687 55.01195312 8 55 C8.67487737 50.18080529 10.57965909 46.08116134 12.5625 41.6875 C12.89185547 40.94693359 13.22121094 40.20636719 13.56054688 39.44335938 C14.36917123 37.62688438 15.18397116 35.81316069 16 34 C15.34 34 14.68 34 14 34 C11.99898747 29.6433122 10.00537255 25.28334548 8.01855469 20.92016602 C7.3415458 19.43616643 6.66252024 17.95308516 5.98144531 16.47094727 C5.00314924 14.34108549 4.03213975 12.20803269 3.0625 10.07421875 C2.75626709 9.41161545 2.45003418 8.74901215 2.13452148 8.06632996 C0.83493827 5.18973203 0 3.19586032 0 0 Z " fill="#F7F7F7" transform="translate(566,199)"/>
<path d="M0 0 C4.26400913 2.01132506 6.89749376 4.47882522 9.1862793 8.62133789 C11.01991806 13.98141665 10.39676605 19.84627792 10.25 25.4375 C10.23195313 26.74138672 10.21390625 28.04527344 10.1953125 29.38867188 C10.14835957 32.59320909 10.08269464 35.7962189 10 39 C6.7 39 3.4 39 0 39 C-0.01458252 38.26362305 -0.02916504 37.52724609 -0.04418945 36.76855469 C-0.11871111 33.42850996 -0.21535873 30.08946019 -0.3125 26.75 C-0.33505859 25.59113281 -0.35761719 24.43226563 -0.38085938 23.23828125 C-0.4340332 21.56572266 -0.4340332 21.56572266 -0.48828125 19.859375 C-0.51446533 18.83295898 -0.54064941 17.80654297 -0.56762695 16.74902344 C-1.05825506 13.62961494 -1.77028967 12.21641701 -4 10 C-8.12014966 9.31330839 -10.16772015 9.4508168 -13.67578125 11.765625 C-17.20363005 16.67496753 -16.7814446 21.40852405 -16.8125 27.3125 C-16.83763672 28.43462891 -16.86277344 29.55675781 -16.88867188 30.71289062 C-16.9474532 33.47561286 -16.9837998 36.23675392 -17 39 C-20.3 39 -23.6 39 -27 39 C-27 26.46 -27 13.92 -27 1 C-24.03 1 -21.06 1 -18 1 C-17.34 2.32 -16.68 3.64 -16 5 C-15.21625 4.360625 -14.4325 3.72125 -13.625 3.0625 C-9.14345188 -0.45871638 -5.58253519 -0.65898392 0 0 Z " fill="#F9F9F9" transform="translate(679,198)"/>
<path d="M0 0 C3.57973816 -0.80712259 6.44610816 -1.00275786 10 0 C13.63033547 3.63565075 16.31282514 7.63820892 19 12 C19.52207031 11.13375 20.04414062 10.2675 20.58203125 9.375 C26.3552496 0.43016549 26.3552496 0.43016549 31.046875 -0.796875 C33.78768816 -0.75427169 36.31524856 -0.54196852 39 0 C36.00759082 5.61076721 32.42075105 10.41045189 28.4140625 15.3515625 C26.71612025 17.8650321 26.71612025 17.8650321 27.453125 20.3828125 C29.48742388 23.82468182 31.74658502 27.03880667 34.125 30.25 C39 36.88429752 39 36.88429752 39 38 C35.10133034 38.78702116 31.87054124 39.0122954 28 38 C24.30441687 34.38888734 21.65797433 30.41026852 19 26 C18.55011719 26.86625 18.10023438 27.7325 17.63671875 28.625 C15.63137209 32.0971834 13.75025613 35.07437761 11 38 C7.14002505 39.03202476 3.8939354 38.7730607 0 38 C1.86440278 32.39649109 5.49957376 28.44842017 9.19921875 23.9375 C11.19110375 21.22899551 11.19110375 21.22899551 11.0859375 18.57421875 C9.54393347 14.91889265 7.32849591 11.95993203 4.9375 8.8125 C0 2.24488404 0 2.24488404 0 0 Z " fill="#F8F8F8" transform="translate(789,199)"/>
<path d="M0 0 C2.97 0 5.94 0 9 0 C9 3.3 9 6.6 9 10 C12.3 10 15.6 10 19 10 C19 12.97 19 15.94 19 19 C15.7 19 12.4 19 9 19 C9.14017826 21.97953359 9.28686342 24.95849304 9.4375 27.9375 C9.47681641 28.78763672 9.51613281 29.63777344 9.55664062 30.51367188 C9.59853516 31.32255859 9.64042969 32.13144531 9.68359375 32.96484375 C9.72025146 33.7137085 9.75690918 34.46257324 9.79467773 35.23413086 C9.81771063 37.02461326 9.81771063 37.02461326 11 38 C12.34747084 38.23075082 13.70377565 38.41153063 15.0625 38.5625 C16.361875 38.706875 17.66125 38.85125 19 39 C19 41.97 19 44.94 19 48 C7.18478865 48.68826474 7.18478865 48.68826474 3.375 46.25 C0.46164204 43.48997667 -0.8571623 41.55616293 -1.22705078 37.52636719 C-1.21657715 36.62563477 -1.20610352 35.72490234 -1.1953125 34.796875 C-1.18564453 33.32734375 -1.18564453 33.32734375 -1.17578125 31.828125 C-1.15902344 30.81234375 -1.14226563 29.7965625 -1.125 28.75 C-1.11597656 27.71875 -1.10695313 26.6875 -1.09765625 25.625 C-1.07412011 23.08309713 -1.04124023 20.5416672 -1 18 C-2.98 18 -4.96 18 -7 18 C-7 15.36 -7 12.72 -7 10 C-5.02 10 -3.04 10 -1 10 C-0.67 6.7 -0.34 3.4 0 0 Z " fill="#F9F9F9" transform="translate(541,189)"/>
<path d="M0 0 C3.3 0 6.6 0 10 0 C10 17.82 10 35.64 10 54 C6.7 54 3.4 54 0 54 C0 36.18 0 18.36 0 0 Z " fill="#FFFFFF" transform="translate(421,183)"/>
<path d="M0 0 C3.3 0 6.6 0 10 0 C10 17.49 10 34.98 10 53 C6.7 53 3.4 53 0 53 C0 35.51 0 18.02 0 0 Z " fill="#FDFDFD" transform="translate(632,184)"/>
<path d="M0 0 C0 3.63 0 7.26 0 11 C-1.588125 11.2475 -3.17625 11.495 -4.8125 11.75 C-8.67551889 12.33725648 -8.67551889 12.33725648 -11.62304688 14.7265625 C-13.24967956 17.4122369 -13.42097228 19.08144652 -13.51171875 22.203125 C-13.54716797 23.1828125 -13.58261719 24.1625 -13.61914062 25.171875 C-13.65297852 26.69554687 -13.65297852 26.69554687 -13.6875 28.25 C-13.72166016 29.28125 -13.75582031 30.3125 -13.79101562 31.375 C-13.87337215 33.91628699 -13.93836593 36.45812601 -14 39 C-17.3 39 -20.6 39 -24 39 C-24 26.46 -24 13.92 -24 1 C-21.03 1 -18.06 1 -15 1 C-14.34 2.65 -13.68 4.3 -13 6 C-12.2575 5.38125 -11.515 4.7625 -10.75 4.125 C-6.80004132 1.0727592 -5.05946641 0 0 0 Z " fill="#FCFCFC" transform="translate(509,198)"/>
<path d="M0 0 C3.3 0 6.6 0 10 0 C10 12.54 10 25.08 10 38 C6.7 38 3.4 38 0 38 C0 25.46 0 12.92 0 0 Z " fill="#FEFEFE" transform="translate(516,199)"/>
<path d="M0 0 C2.75329021 1.79562405 4.52627461 3.05254922 6 6 C6.53118252 10.91996928 6.75105553 14.77327597 4.125 19.0625 C1.37440779 21.5703929 0.44867818 21.95767187 -3.3125 22.3125 C-7.61926041 21.9475203 -9.02483986 21.06016472 -12 18 C-14.30055289 14.22899062 -14.27230635 11.48130989 -13.6640625 7.1953125 C-11.74016591 0.83513672 -6.2354312 -1.02034329 0 0 Z " fill="#202732" transform="translate(722,207)"/>
<path d="M0 0 C2.875 1.8125 2.875 1.8125 5 5 C5.80027376 10.03568486 5.68655728 14.43964254 3.625 19.125 C1.27331393 21.83848393 0.27032819 21.97496961 -3.375 22.3125 C-7 22 -7 22 -9.375 20.1875 C-12.56482378 15.89350645 -12.6788206 11.15903654 -12 6 C-8.7435583 0.78969329 -6.13573303 -0.72185094 0 0 Z " fill="#1F2630" transform="translate(769,207)"/>
<path d="M0 0 C0.99 0.66 1.98 1.32 3 2 C3.39964378 5.1305429 3.52149743 7.13083761 1.875 9.875 C-0.88090884 11.52854531 -2.85075452 11.39365568 -6 11 C-7.9375 9.9375 -7.9375 9.9375 -9 8 C-8.8125 4.375 -8.8125 4.375 -8 1 C-5.22899606 -0.38550197 -3.0665294 -0.1877467 0 0 Z " fill="#F7F7F7" transform="translate(524,183)"/>
<path d="M0 0 C1.09054687 0.02320313 2.18109375 0.04640625 3.3046875 0.0703125 C4.40039062 0.08835938 5.49609375 0.10640625 6.625 0.125 C7.46804688 0.14820313 8.31109375 0.17140625 9.1796875 0.1953125 C6.74865302 6.7591056 6.74865302 6.7591056 4.3046875 8.6328125 C1.7914905 9.29807053 -0.23227737 9.46773725 -2.8203125 9.1953125 C-4.8203125 7.1953125 -4.8203125 7.1953125 -5.0703125 4.6953125 C-4.69833647 0.97555224 -3.68329698 0.25507597 0 0 Z " fill="#212832" transform="translate(455.8203125,220.8046875)"/>
</svg>
