<?xml version="1.0" encoding="UTF-8"?>
<svg version="1.1" xmlns="http://www.w3.org/2000/svg" width="810" height="308">
<path d="M0 0 C267.3 0 534.6 0 810 0 C810 101.64 810 203.28 810 308 C542.7 308 275.4 308 0 308 C0 206.36 0 104.72 0 0 Z " fill="#1A212C" transform="translate(0,0)"/>
<path d="M0 0 C1.31476318 -0.00630432 2.62952637 -0.01260864 3.98413086 -0.019104 C5.42561985 -0.01552433 6.86710762 -0.0114224 8.30859375 -0.00683594 C9.78068099 -0.00818261 11.2527678 -0.01012317 12.72485352 -0.01263428 C15.81172923 -0.01558543 18.89848928 -0.01128825 21.98535156 -0.00195312 C25.94681504 0.0094415 29.90800753 0.00288197 33.86946106 -0.00909805 C36.90972952 -0.01631694 39.94993348 -0.01402861 42.99020386 -0.00884247 C44.45108065 -0.00750605 45.91196325 -0.00915344 47.37283325 -0.01380157 C49.4126169 -0.018867 51.45242101 -0.00978073 53.4921875 0 C55.23520142 0.00238678 55.23520142 0.00238678 57.01342773 0.00482178 C59.74609375 0.25878906 59.74609375 0.25878906 61.74609375 2.25878906 C61.74609375 13.14878906 61.74609375 24.03878906 61.74609375 35.25878906 C109.59609375 35.25878906 157.44609375 35.25878906 206.74609375 35.25878906 C206.74609375 91.02878906 206.74609375 146.79878906 206.74609375 204.25878906 C135.79609375 204.25878906 64.84609375 204.25878906 -8.25390625 204.25878906 C-8.29515625 170.97003906 -8.33640625 137.68128906 -8.37890625 103.38378906 C-8.39711426 92.85617676 -8.41532227 82.32856445 -8.43408203 71.48193359 C-8.44311523 58.66870117 -8.44311523 58.66870117 -8.4447937 52.67843628 C-8.44666395 48.47683621 -8.45418639 44.2752862 -8.46505737 40.07369995 C-8.47871858 34.72328929 -8.48289919 29.37295203 -8.4800508 24.02252555 C-8.4806469 22.05331823 -8.48464632 20.08410848 -8.49233651 18.11491609 C-8.50220564 15.46584929 -8.49991538 12.81707197 -8.49441528 10.16799927 C-8.50024061 9.38807554 -8.50606594 8.60815182 -8.51206779 7.80459404 C-8.47233116 0.74045556 -6.78190421 0.00928674 0 0 Z " fill="#1A212C" transform="translate(64.25390625,47.7412109375)"/>
<path d="M0 0 C0.8796503 0.00223072 1.7593006 0.00446144 2.66560698 0.00675976 C4.05627984 0.00441978 4.05627984 0.00441978 5.47504711 0.00203252 C8.6066574 -0.00198173 11.73821989 0.0012138 14.86983061 0.00434887 C17.10478065 0.00299502 19.33973046 0.00121518 21.57467985 -0.00096118 C27.66334211 -0.00553742 33.75198751 -0.00374518 39.84065008 -0.0005821 C46.1970164 0.00194052 52.55338123 -0.00039576 58.9097476 -0.00196826 C70.27127743 -0.00390713 81.63279866 -0.00078931 92.99432677 0.00429107 C103.30585921 0.00875912 113.6173804 0.00798319 123.92891264 0.00337231 C135.88940509 -0.00197336 147.84989069 -0.00397434 159.81038475 -0.00101542 C166.1468074 0.0005478 172.48322229 0.00073988 178.81964445 -0.00255191 C184.77521812 -0.00542945 190.73077042 -0.00345711 196.68634176 0.00234234 C198.87900014 0.00367058 201.07166031 0.00327476 203.26431799 0.00107968 C206.24389021 -0.00162935 209.22339278 0.00174626 212.20296049 0.00675976 C213.08261079 0.00452904 213.9622611 0.00229832 214.86856747 0 C220.82013392 0.01959359 220.82013392 0.01959359 221.93428373 1.13374341 C222.03660158 3.88554601 222.07314191 6.61239959 222.0679965 9.36480725 C222.07026206 10.23813075 222.07252761 11.11145424 222.07486182 12.01124209 C222.08123212 14.9608618 222.08037053 17.91043591 222.07954741 20.86006176 C222.082537 22.96531242 222.08593907 25.07056252 222.08972502 27.17581189 C222.09858933 32.91124416 222.10090414 38.64666153 222.1015408 44.38209999 C222.10248783 49.16124949 222.10616371 53.94039548 222.1097129 58.71954364 C222.11786664 69.9896921 222.12029629 81.25983257 222.11958647 92.52998364 C222.11898537 104.1764514 222.12954142 115.82287289 222.14533013 127.46932894 C222.15838191 137.45061631 222.16377136 147.4318885 222.16313106 157.41318434 C222.16287538 163.38244643 222.1657648 169.35166743 222.17630911 175.32092106 C222.18595049 180.93261087 222.18609665 186.54421996 222.17879248 192.15591252 C222.17774169 194.22076038 222.18013852 196.28561317 222.18615294 198.35045254 C222.19380645 201.15896368 222.18927252 203.96719141 222.18152189 206.77569592 C222.18923724 208.01492862 222.18923724 208.01492862 222.19710845 209.27919632 C222.16255493 214.90547221 222.16255493 214.90547221 219.93428373 217.13374341 C216.98038929 217.32956386 214.12033443 217.39848651 211.16536283 217.38098156 C210.24626584 217.38339598 209.32716884 217.3858104 208.38022041 217.38829798 C205.28163412 217.39396123 202.18325159 217.38525207 199.08467436 217.37666333 C196.87090324 217.37773556 194.65713239 217.37967336 192.44336271 217.38241589 C186.41665202 217.38727681 180.39001499 217.37959303 174.3633132 217.36946285 C168.06881492 217.3607026 161.77431909 217.3624394 155.47981596 217.36282361 C144.90749759 217.36188604 134.33520476 217.35324339 123.76289701 217.33955395 C112.87714954 217.32546589 101.99142716 217.31838316 91.10567045 217.31904614 C90.10004382 217.31910607 90.10004382 217.31910607 89.07410151 217.31916722 C88.07024107 217.31922775 88.07024107 217.31922775 87.04610062 217.31928951 C75.29310086 217.31994393 63.54010963 217.31480047 51.78711271 217.30649769 C46.77597298 217.30295893 41.76483688 217.3011336 36.75369596 217.30060399 C30.85719792 217.29960231 24.96072641 217.29352012 19.06423712 217.28343785 C16.89457502 217.28050728 14.72490987 217.2792886 12.55524588 217.27986538 C9.60453687 217.28035312 6.65390318 217.27472959 3.70320463 217.26745617 C2.40079447 217.26977908 2.40079447 217.26977908 1.07207298 217.27214891 C-4.83735876 217.24792216 -4.83735876 217.24792216 -7.06571627 216.13374341 C-7.08904166 188.11849721 -7.10669367 160.10325245 -7.11752844 132.08799851 C-7.12269216 119.08102672 -7.12973631 106.07406094 -7.14115572 93.06709301 C-7.15110023 81.73470106 -7.15756914 70.40231346 -7.15980476 59.06991726 C-7.16111227 53.06547165 -7.16420061 47.06103851 -7.17144632 41.05659688 C-7.17820287 35.41211372 -7.18033398 29.76764825 -7.17882395 24.12316144 C-7.17910044 22.04499413 -7.18110772 19.96682628 -7.18492174 17.88866246 C-7.18985328 15.06449591 -7.18871656 12.24039729 -7.18597078 9.41622937 C-7.18888362 8.58258833 -7.19179647 7.74894728 -7.19479758 6.89004439 C-7.17660632 0.02923939 -6.831578 0.02249074 0 0 Z M-0.06571627 8.13374341 C-0.25898614 10.80454656 -0.32618008 13.37130947 -0.3062253 16.04295361 C-0.30793734 16.86754071 -0.30964937 17.6921278 -0.31141329 18.54170239 C-0.31473857 21.32914227 -0.30365261 24.11634482 -0.29276705 26.90376294 C-0.29215475 28.92649273 -0.29242073 30.94922296 -0.29349756 32.97195256 C-0.29395035 38.40431146 -0.28233206 43.83658282 -0.26827669 49.26892102 C-0.25691353 54.36050209 -0.25635191 59.45206153 -0.25492525 64.54365551 C-0.24441734 79.44869647 -0.21649521 94.35372103 -0.19071627 109.25874341 C-0.14946627 142.54749341 -0.10821627 175.83624341 -0.06571627 210.13374341 C70.88428373 210.13374341 141.83428373 210.13374341 214.93428373 210.13374341 C214.93428373 154.36374341 214.93428373 98.59374341 214.93428373 41.13374341 C167.08428373 41.13374341 119.23428373 41.13374341 69.93428373 41.13374341 C69.93428373 30.24374341 69.93428373 19.35374341 69.93428373 8.13374341 C67.16873443 5.3681941 65.55308587 5.8802574 61.68037748 5.87495434 C59.70823271 5.86549786 59.70823271 5.86549786 57.69624662 5.85585034 C56.25475764 5.85943001 54.81326987 5.86353194 53.37178373 5.86811841 C51.89969649 5.86677173 50.42760968 5.86483117 48.95552397 5.86232007 C45.86864826 5.85936891 42.7818882 5.86366609 39.69502592 5.87300122 C35.73356245 5.88439584 31.77236995 5.87783631 27.81091642 5.86585629 C24.77064797 5.8586374 21.730444 5.86092573 18.69017363 5.86611187 C17.22929684 5.8674483 15.76841424 5.86580091 14.30754423 5.86115277 C12.26776058 5.85608735 10.22795647 5.86517361 8.18818998 5.87495434 C7.02618071 5.87654553 5.86417143 5.87813672 4.66694975 5.87977612 C1.78833758 5.85393098 1.78833758 5.85393098 -0.06571627 8.13374341 Z " fill="#E7E8E9" transform="translate(56.06571626663208,41.8662565946579)"/>
<path d="M0 0 C46.2 0 92.4 0 140 0 C140 9.57 140 19.14 140 29 C94.13 29 48.26 29 1 29 C0.67 19.43 0.34 9.86 0 0 Z " fill="#DAC9B3" transform="translate(132,47)"/>
<path d="M0 0 C3.3 0 6.6 0 10 0 C10.33 6.27 10.66 12.54 11 19 C12.65 17.68 14.3 16.36 16 15 C21.17611766 13.9753246 25.71130153 14.36736621 30.4375 16.6875 C34.70701008 20.54047251 37.70548524 23.74102521 38.23828125 29.63671875 C38.39987658 36.2791375 38.19009761 41.61643805 34 47 C29.86370219 50.58479144 26.45482923 51.81190244 21 52 C17.12180956 51.41580797 13.85513964 50.85513964 11 48 C10.34 48.99 9.68 49.98 9 51 C6.03 51 3.06 51 0 51 C0 34.17 0 17.34 0 0 Z " fill="#F6F6F7" transform="translate(630,118)"/>
<path d="M0 0 C4.07166495 2.90833211 7.01178079 6.03534238 8.625 10.875 C9.25904453 19.32486264 8.81179966 24.86873757 3.4375 31.625 C-1.39569012 35.49155209 -7.23862656 36.54199711 -13.375 35.875 C-18.80799809 33.95081318 -22.1368064 30.51605924 -25.375 25.875 C-27.15968529 20.52094413 -27.42014547 14.07859806 -25.65625 8.671875 C-20.28333323 -1.29401901 -10.23827074 -3.41275691 0 0 Z " fill="#F9FAFA" transform="translate(702.375,134.125)"/>
<path d="M0 0 C2.0305125 1.2159691 3.68786615 2.47352154 5.41015625 4.09375 C5.92191406 4.57457031 6.43367188 5.05539063 6.9609375 5.55078125 C10.04111878 8.83920014 11.09241764 11.64540946 11.41015625 16.09375 C8.01037525 16.44410911 4.79549368 16.63135862 1.41015625 16.09375 C-1.08984375 13.15625 -1.08984375 13.15625 -2.58984375 10.09375 C-6.52052993 8.12840691 -11.2949192 8.76432742 -15.58984375 9.09375 C-19.42844305 10.45325392 -20.29763612 11.61009599 -22.40234375 15.09375 C-24.44140817 20.66876429 -24.90285806 26.98477359 -22.5703125 32.5078125 C-20.51778426 35.91835792 -18.94434167 37.85741805 -15.58984375 40.09375 C-13.21228426 40.4105717 -13.21228426 40.4105717 -10.65234375 40.34375 C-9.79769531 40.34890625 -8.94304687 40.3540625 -8.0625 40.359375 C-5.41877488 40.07537293 -3.80826802 39.54634852 -1.58984375 38.09375 C-1.21859375 37.2275 -0.84734375 36.36125 -0.46484375 35.46875 C1.41015625 33.09375 1.41015625 33.09375 3.8203125 32.76953125 C6.36706254 32.78027703 8.87286666 32.87953231 11.41015625 33.09375 C10.00754885 39.10492455 8.29472816 43.17379071 3.28515625 46.94140625 C-2.73312375 50.64014083 -9.72597298 50.86630688 -16.58984375 50.09375 C-23.16474548 48.28077535 -27.89391719 43.70756277 -31.58984375 38.09375 C-34.79320545 30.48710516 -34.93679184 20.99288214 -32.75 13.0390625 C-30.07723271 7.11757807 -26.2227805 3.28731874 -20.58984375 0.09375 C-14.45783892 -1.95025161 -6.15745039 -2.15464327 0 0 Z " fill="#F7F7F7" transform="translate(349.58984375,119.90625)"/>
<path d="M0 0 C2.8995789 2.05092166 4.59155627 3.85221273 6.5625 6.8125 C7.01660156 9.95043945 7.01660156 9.95043945 6.953125 13.42578125 C6.94023437 14.67294922 6.92734375 15.92011719 6.9140625 17.20507812 C6.88054687 18.49865234 6.84703125 19.79222656 6.8125 21.125 C6.79445313 22.43791016 6.77640625 23.75082031 6.7578125 25.10351562 C6.71072786 28.34058488 6.64497042 31.57617053 6.5625 34.8125 C3.9225 34.8125 1.2825 34.8125 -1.4375 34.8125 C-1.4375 33.1625 -1.4375 31.5125 -1.4375 29.8125 C-2.0975 29.8125 -2.7575 29.8125 -3.4375 29.8125 C-3.685 30.43125 -3.9325 31.05 -4.1875 31.6875 C-5.69634407 34.25253491 -6.71323895 34.70728377 -9.4375 35.8125 C-14.14777588 36.54901586 -17.60765542 36.23496633 -21.875 34.0625 C-25.5653003 30.82223632 -26.25709297 29.22998378 -26.875 24.375 C-26.31945857 19.85130547 -24.95142018 18.60766378 -21.4375 15.8125 C-17.7257166 13.32938564 -13.99238906 13.58170878 -9.6875 13.6875 C-8.99011719 13.69652344 -8.29273438 13.70554688 -7.57421875 13.71484375 C-5.86183042 13.73830112 -4.14961996 13.77416896 -2.4375 13.8125 C-3.52534968 10.56266865 -3.52534968 10.56266865 -5.4375 7.8125 C-7.50414006 7.57459269 -7.50414006 7.57459269 -9.875 7.5625 C-11.07962891 7.52382812 -11.07962891 7.52382812 -12.30859375 7.484375 C-13.01113281 7.59265625 -13.71367187 7.7009375 -14.4375 7.8125 C-15.4275 9.2975 -15.4275 9.2975 -16.4375 10.8125 C-18.6015625 11.10546875 -18.6015625 11.10546875 -21.0625 11 C-21.87976563 10.97292969 -22.69703125 10.94585937 -23.5390625 10.91796875 C-24.16554688 10.88316406 -24.79203125 10.84835938 -25.4375 10.8125 C-25.1374825 7.31229578 -24.48016259 5.86345809 -22.1875 3.125 C-15.79298977 -2.25220178 -7.75863749 -2.68025659 0 0 Z " fill="#F7F8F8" transform="translate(413.4375,134.1875)"/>
<path d="M0 0 C3.3 0 6.6 0 10 0 C11.294174 2.56126064 12.58540784 5.12393358 13.875 7.6875 C14.23980469 8.40873047 14.60460937 9.12996094 14.98046875 9.87304688 C16.8179242 13.53125364 18.56138502 17.1611695 20 21 C21.60703336 18.58944995 22.63295545 16.66601678 23.69140625 14.0234375 C23.99626953 13.270625 24.30113281 12.5178125 24.61523438 11.7421875 C24.92783203 10.96101562 25.24042969 10.17984375 25.5625 9.375 C26.18652107 7.81939554 26.81270993 6.26465834 27.44140625 4.7109375 C27.71670166 4.02306152 27.99199707 3.33518555 28.27563477 2.62646484 C29 1 29 1 30 0 C31.68608966 -0.07205511 33.37500659 -0.08386068 35.0625 -0.0625 C35.98160156 -0.05347656 36.90070312 -0.04445312 37.84765625 -0.03515625 C38.55792969 -0.02355469 39.26820313 -0.01195312 40 0 C38.68557584 3.31203298 37.33318996 6.60371218 35.93701172 9.88208008 C35.53674774 10.82267776 35.13648376 11.76327545 34.72409058 12.7323761 C34.08336105 14.2357679 34.08336105 14.2357679 33.4296875 15.76953125 C32.9885965 16.80567062 32.54750549 17.84181 32.0930481 18.90934753 C30.68754026 22.21061502 29.28128007 25.51156141 27.875 28.8125 C26.92052326 31.05401531 25.9660956 33.29555153 25.01171875 35.53710938 C22.67504812 41.02498205 20.3377028 46.51256693 18 52 C14.7 52 11.4 52 8 52 C10.16163513 45.06001352 12.8936214 38.56882431 16 32 C15.34 32 14.68 32 14 32 C5.44581659 14.0219532 5.44581659 14.0219532 1.9375 6.4375 C1.55464844 5.61121094 1.17179687 4.78492188 0.77734375 3.93359375 C0 2 0 2 0 0 Z " fill="#F6F6F7" transform="translate(505,133)"/>
<path d="M0 0 C3.64207791 1.36577922 4.63230749 2.37948746 6.60668945 5.71142578 C8.11796567 9.27842958 8.34797821 11.6415251 8.29296875 15.4921875 C8.2784668 17.29042969 8.2784668 17.29042969 8.26367188 19.125 C8.23853516 20.3625 8.21339844 21.6 8.1875 22.875 C8.16719727 24.76605469 8.16719727 24.76605469 8.14648438 26.6953125 C8.11123435 29.79731454 8.06195504 32.89843534 8 36 C5.03 36 2.06 36 -1 36 C-1.02505615 35.2886792 -1.0501123 34.5773584 -1.07592773 33.84448242 C-1.19188439 30.62530483 -1.31461245 27.40642015 -1.4375 24.1875 C-1.47681641 23.06794922 -1.51613281 21.94839844 -1.55664062 20.79492188 C-1.59853516 19.72177734 -1.64042969 18.64863281 -1.68359375 17.54296875 C-1.72025146 16.55321045 -1.75690918 15.56345215 -1.79467773 14.54370117 C-1.90790331 11.8781649 -1.90790331 11.8781649 -3 9 C-4.43655854 8.91868537 -5.8744483 8.86066441 -7.3125 8.8125 C-8.11300781 8.77769531 -8.91351562 8.74289063 -9.73828125 8.70703125 C-12.51627459 9.06687495 -13.29427215 9.83241353 -15 12 C-16.23060421 14.46120841 -16.2057723 16.25776866 -16.31640625 19.0078125 C-16.35830078 19.99394531 -16.40019531 20.98007813 -16.44335938 21.99609375 C-16.48267578 23.02863281 -16.52199219 24.06117188 -16.5625 25.125 C-16.60568359 26.16527344 -16.64886719 27.20554688 -16.69335938 28.27734375 C-16.7996288 30.85142528 -16.90166583 33.42560508 -17 36 C-19.97 36 -22.94 36 -26 36 C-26 24.45 -26 12.9 -26 1 C-23.36 1 -20.72 1 -18 1 C-18 2.32 -18 3.64 -18 5 C-17.071875 4.175 -16.14375 3.35 -15.1875 2.5 C-10.40445401 -0.92898613 -5.67612626 -0.79079158 0 0 Z " fill="#FCFCFC" transform="translate(613,133)"/>
<path d="M0 0 C3.54607568 -0.7193883 6.4810356 -0.93207697 10 0 C13.29400689 3.29926889 15.66392421 6.98038356 18 11 C20.58042896 8.5599291 22.43803101 6.35827358 24.125 3.25 C25.36328125 1.41796875 25.36328125 1.41796875 27 0 C30.40837231 -0.60209342 33.57632343 -0.41881869 37 0 C35.0060512 4.49464702 31.95812211 8.31738541 29.01367188 12.22265625 C26.62734461 15.28953107 26.62734461 15.28953107 26.24462891 18.97973633 C27.03232768 21.08646141 27.94976312 22.61291253 29.28515625 24.41796875 C29.73310547 25.03220703 30.18105469 25.64644531 30.64257812 26.27929688 C31.11115234 26.90900391 31.57972656 27.53871094 32.0625 28.1875 C37 34.88983629 37 34.88983629 37 36 C33.45392432 36.7193883 30.5189644 36.93207697 27 36 C23.70599311 32.70073111 21.33607579 29.01961644 19 25 C16.41957104 27.4400709 14.56196899 29.64172642 12.875 32.75 C11.63671875 34.58203125 11.63671875 34.58203125 10 36 C6.59162769 36.60209342 3.42367657 36.41881869 0 36 C2.85277908 30.75088649 6.10090245 26.12314791 9.8046875 21.4296875 C11.27601743 19.07163992 11.27601743 19.07163992 10.484375 16.58203125 C8.34398265 12.85887509 5.75623994 9.56447152 3.1015625 6.19726562 C0 2.1944374 0 2.1944374 0 0 Z " fill="#F6F6F7" transform="translate(715,133)"/>
<path d="M0 0 C2.97 0 5.94 0 9 0 C9 2.97 9 5.94 9 9 C11.97 9 14.94 9 18 9 C18 11.64 18 14.28 18 17 C15.03 17 12.06 17 9 17 C9.14017826 19.97953359 9.28686342 22.95849304 9.4375 25.9375 C9.47681641 26.78763672 9.51613281 27.63777344 9.55664062 28.51367188 C9.59853516 29.32255859 9.64042969 30.13144531 9.68359375 30.96484375 C9.72025146 31.7137085 9.75690918 32.46257324 9.79467773 33.23413086 C9.81771063 35.02461326 9.81771063 35.02461326 11 36 C13.32817964 36.36760731 15.6618385 36.70241581 18 37 C18 39.64 18 42.28 18 45 C8.26894536 45.62334158 8.26894536 45.62334158 3.4375 43.25 C0.59366526 40.62492178 -0.8255765 38.68871956 -1.22705078 34.80175781 C-1.21657715 34.02670898 -1.20610352 33.25166016 -1.1953125 32.453125 C-1.18886719 31.60878906 -1.18242187 30.76445312 -1.17578125 29.89453125 C-1.15902344 29.02183594 -1.14226562 28.14914063 -1.125 27.25 C-1.11597656 26.36183594 -1.10695313 25.47367188 -1.09765625 24.55859375 C-1.07414577 22.37211942 -1.04128499 20.18619906 -1 18 C-2.98 18 -4.96 18 -7 18 C-7 15.03 -7 12.06 -7 9 C-5.02 9 -3.04 9 -1 9 C-0.67 6.03 -0.34 3.06 0 0 Z " fill="#F5F5F5" transform="translate(482,124)"/>
<path d="M0 0 C3.3 0 6.6 0 10 0 C10 16.83 10 33.66 10 51 C6.7 51 3.4 51 0 51 C0 34.17 0 17.34 0 0 Z " fill="#F4F4F4" transform="translate(369,118)"/>
<path d="M0 0 C2.97 0 5.94 0 9 0 C9.66 1.65 10.32 3.3 11 5 C11.86625 4.175 12.7325 3.35 13.625 2.5 C16.17890641 0.34134101 16.86639751 0.0123706 20.375 -0.3125 C21.24125 -0.209375 22.1075 -0.10625 23 0 C23 3.3 23 6.6 23 10 C19.19140625 10.63476562 19.19140625 10.63476562 15.3828125 11.26953125 C12.65587522 11.83051301 12.65587522 11.83051301 11 15 C10.63423946 17.31923274 10.63423946 17.31923274 10.5859375 19.88671875 C10.52792969 21.2934082 10.52792969 21.2934082 10.46875 22.72851562 C10.4378125 23.70498047 10.406875 24.68144531 10.375 25.6875 C10.31699219 27.16959961 10.31699219 27.16959961 10.2578125 28.68164062 C10.16354601 31.1207861 10.0806841 33.56036747 10 36 C6.7 36 3.4 36 0 36 C0 24.12 0 12.24 0 0 Z " fill="#F3F3F4" transform="translate(429,133)"/>
<path d="M0 0 C2.97 0 5.94 0 9 0 C9 16.17 9 32.34 9 49 C6.03 49 3.06 49 0 49 C0 32.83 0 16.66 0 0 Z " fill="#FFFFFF" transform="translate(568,120)"/>
<path d="M0 0 C3.3 0 6.6 0 10 0 C10 11.88 10 23.76 10 36 C6.7 36 3.4 36 0 36 C0 24.12 0 12.24 0 0 Z " fill="#F2F2F3" transform="translate(458,133)"/>
<path d="M0 0 C2.77683281 2.64460268 3.87055021 4.40804303 4.18359375 8.2578125 C3.98033402 12.2312124 3.46205295 14.42593421 0.9375 17.5625 C-3.1676658 19.57141092 -5.44263749 19.5787127 -10 19 C-12.43119623 17.12984906 -13.64069173 15.71861655 -15 13 C-15.5811138 5.91041162 -15.5811138 5.91041162 -13.125 2.0625 C-9.08345275 -1.86017821 -5.24265852 -1.47798352 0 0 Z " fill="#1F2630" transform="translate(655,142)"/>
<path d="M0 0 C3.71630304 0.79635065 5.39744837 1.78979506 7.6171875 4.90625 C9.21456849 8.24237313 9.23968723 11.16536189 8.5 14.75 C7.0625 18.25 7.0625 18.25 4.5 20.75 C1.31245771 21.61560781 -1.31245771 21.61560781 -4.5 20.75 C-7.61740103 17.70863314 -8.73452892 15.01362404 -9.0625 10.75 C-8.88711498 7.70999296 -8.20559813 5.73236293 -6.4375 3.25 C-3.5 0.75 -3.5 0.75 0 0 Z " fill="#232934" transform="translate(693.5,140.25)"/>
<path d="M0 0 C3.0625 0.3125 3.0625 0.3125 4.9375 1.5 C6.44582602 3.93008081 6.42273622 5.50265752 6.0625 8.3125 C4.0625 10.3125 4.0625 10.3125 0.625 10.625 C-2.9375 10.3125 -2.9375 10.3125 -4.9375 9.125 C-5.9375 7.3125 -5.9375 7.3125 -5.75 4.75 C-4.56703794 1.20111381 -3.75106681 0.39904966 0 0 Z " fill="#F3F3F4" transform="translate(462.9375,117.6875)"/>
<path d="M0 0 C1.51400391 0.01740234 1.51400391 0.01740234 3.05859375 0.03515625 C4.07050781 0.04417969 5.08242188 0.05320313 6.125 0.0625 C7.29869141 0.07990234 7.29869141 0.07990234 8.49609375 0.09765625 C7.63671875 4.87109375 7.63671875 4.87109375 6.37109375 6.91015625 C3.42464506 8.77624042 0.88708994 8.40592863 -2.50390625 8.09765625 C-3.16390625 7.43765625 -3.82390625 6.77765625 -4.50390625 6.09765625 C-3.77826013 0.14735804 -3.77826013 0.14735804 0 0 Z " fill="#212833" transform="translate(401.50390625,153.90234375)"/>
</svg>
