<?xml version="1.0" encoding="UTF-8"?>
<svg version="1.1" xmlns="http://www.w3.org/2000/svg" width="819" height="320">
<path d="M0 0 C270.27 0 540.54 0 819 0 C819 105.6 819 211.2 819 320 C548.73 320 278.46 320 0 320 C0 214.4 0 108.8 0 0 Z " fill="#F9F9F9" transform="translate(0,0)"/>
<path d="M0 0 C0.65725571 -0.00525696 1.31451141 -0.01051392 1.99168396 -0.01593018 C4.16405007 -0.0291323 6.33568308 -0.02039103 8.50805664 -0.01025391 C10.01876465 -0.01227484 11.52947172 -0.01518644 13.04017639 -0.01895142 C16.20689173 -0.02337523 19.37335323 -0.016943 22.54003906 -0.00292969 C26.5966743 0.01414789 30.65271347 0.00433089 34.70932674 -0.01364708 C37.82947771 -0.02449602 40.94948777 -0.02103329 44.06964302 -0.0132637 C45.5651513 -0.01126399 47.06067241 -0.01371295 48.5561657 -0.02070236 C50.64846462 -0.02833381 52.73980369 -0.01668986 54.83203125 0 C56.02211288 0.00238678 57.21219452 0.00477356 58.43833923 0.00723267 C61.48071289 0.38818359 61.48071289 0.38818359 65.48071289 3.38818359 C65.48071289 16.58818359 65.48071289 29.78818359 65.48071289 43.38818359 C131.81071289 43.38818359 198.14071289 43.38818359 266.48071289 43.38818359 C266.48071289 115.32818359 266.48071289 187.26818359 266.48071289 261.38818359 C175.40071289 261.38818359 84.32071289 261.38818359 -9.51928711 261.38818359 C-9.58116211 218.88005859 -9.64303711 176.37193359 -9.70678711 132.57568359 C-9.73409912 119.13358154 -9.76141113 105.69147949 -9.78955078 91.84204102 C-9.80310059 75.4786377 -9.80310059 75.4786377 -9.80561829 67.82807922 C-9.8084231 62.46317082 -9.8194579 57.09835267 -9.83601379 51.73347473 C-9.85706797 44.90088631 -9.86277543 38.06842879 -9.85850394 31.23580992 C-9.85939781 28.72159402 -9.86539357 26.20737384 -9.8769325 23.69318426 C-9.89174534 20.30983146 -9.88829756 16.92698815 -9.88005066 13.54362488 C-9.88878865 12.5487824 -9.89752665 11.55393991 -9.90652943 10.52895069 C-9.90055681 9.62397783 -9.8945842 8.71900497 -9.8884306 7.7866087 C-9.88956976 7.0040051 -9.89070892 6.22140149 -9.8918826 5.41508263 C-8.88105513 -0.0837634 -4.81741793 0.00966808 0 0 Z " fill="#FEFEFE" transform="translate(37.519287109375,30.61181640625)"/>
<path d="M0 0 C1.00945002 -0.00521549 2.01890004 -0.01043099 3.05893946 -0.01580453 C4.17623359 -0.01134309 5.29352773 -0.00688164 6.44467926 -0.002285 C8.21534579 -0.00696498 8.21534579 -0.00696498 10.02178335 -0.01173949 C13.30853845 -0.01835886 16.59506651 -0.01594637 19.88180804 -0.00976706 C23.42241132 -0.00525793 26.96299417 -0.01221864 30.50359344 -0.0177269 C37.44364105 -0.02663908 44.3836455 -0.0246908 51.32369483 -0.01890162 C56.96198293 -0.01439229 62.60025889 -0.01376906 68.23854828 -0.01594925 C69.03977925 -0.01625572 69.84101022 -0.01656218 70.66652092 -0.01687793 C72.2939994 -0.01751736 73.92147787 -0.01816578 75.54895633 -0.01882312 C90.82439488 -0.02453176 106.09980946 -0.01796016 121.37524408 -0.00722238 C134.49381944 0.00171361 147.61235942 0.00016172 160.73093414 -0.00905991 C175.95019886 -0.01975313 191.16944255 -0.02398238 206.3887105 -0.01783538 C208.01033814 -0.01719825 209.63196579 -0.01656951 211.25359344 -0.01594925 C212.05154991 -0.0156407 212.84950638 -0.01533215 213.67164335 -0.01501425 C219.3058072 -0.01328446 224.93995777 -0.01620851 230.57411957 -0.02090836 C237.43648478 -0.02650668 244.29880422 -0.02502293 251.16116416 -0.01434687 C254.66516254 -0.00907595 258.16908448 -0.0070574 261.67308235 -0.01364517 C265.464586 -0.02066588 269.25596337 -0.01230615 273.04746246 -0.002285 C274.72340367 -0.00897717 274.72340367 -0.00897717 276.43320227 -0.01580453 C277.44265229 -0.01058903 278.45210231 -0.00537354 279.49214172 0 C280.36821154 0.0003247 281.24428136 0.00064941 282.14689875 0.00098395 C284.24607086 0.25168228 284.24607086 0.25168228 286.24607086 2.25168228 C286.49676919 4.24069923 286.49676919 4.24069923 286.49775314 6.73732281 C286.50296864 7.6869384 286.50818413 8.636554 286.51355767 9.61494583 C286.50909623 10.66541172 286.50463479 11.71587762 286.50003815 12.79817581 C286.50315813 13.90849421 286.50627811 15.0188126 286.50949264 16.16277701 C286.5175131 19.90852948 286.51113321 23.65412177 286.50485992 27.39987564 C286.50756801 30.07507685 286.51105516 32.75026677 286.51548004 35.42546463 C286.52439186 41.95275915 286.52244402 48.48000778 286.51665476 55.00730412 C286.5121449 60.31091561 286.51152243 65.61451421 286.51370239 70.91812706 C286.51400886 71.67188817 286.51431532 72.42564928 286.51463108 73.20225163 C286.51527051 74.73333537 286.51591893 76.26441911 286.51657626 77.79550285 C286.52228489 92.16630626 286.51571352 106.53708418 286.50497553 120.90788341 C286.49604135 133.24669828 286.49758993 145.58547552 286.50681305 157.9242897 C286.51750941 172.24079733 286.5217336 186.5572826 286.51558852 200.87379366 C286.5149514 202.39966968 286.51432266 203.92554571 286.51370239 205.45142174 C286.51339384 206.20224762 286.51308529 206.9530735 286.51276739 207.72665168 C286.51103841 213.02521711 286.51395996 218.32376838 286.5186615 223.62233162 C286.52426338 230.07770175 286.52276861 236.53302322 286.51210001 242.98838776 C286.50683363 246.28391398 286.50587443 249.57934196 286.51139832 252.8748703 C286.516829 256.44273067 286.51004968 260.01035965 286.50003815 263.57820511 C286.50449959 264.62644028 286.50896103 265.67467545 286.51355767 266.75467533 C286.50834218 267.70689867 286.50312668 268.65912202 286.49775314 269.64020061 C286.49742844 270.46424875 286.49710373 271.28829688 286.49676919 272.13731617 C286.24607086 274.25168228 286.24607086 274.25168228 284.24607086 277.25168228 C282.14689875 277.62657911 282.14689875 277.62657911 279.49214172 277.62641239 C278.4826917 277.63361893 277.47324168 277.64082548 276.43320227 277.6482504 C275.31590813 277.64087612 274.198614 277.63350183 273.04746246 277.62590408 C271.27679594 277.63186569 271.27679594 277.63186569 269.47035837 277.63794774 C266.18349706 277.64593408 262.89715328 277.6403798 259.61033368 277.62919724 C256.06972626 277.62038246 252.52915527 277.62879082 248.98854828 277.63505936 C242.04847736 277.64456537 235.10851014 277.63793181 228.1684469 277.62579641 C220.09335426 277.61220036 212.01828656 277.61381215 203.94318539 277.61592975 C189.53908029 277.61912226 175.13502459 277.60743687 160.73093414 277.58786392 C146.74100998 277.56885864 132.75114373 277.56177605 118.76120758 277.56735611 C103.54193959 277.57340852 88.32269709 277.57324672 73.10343122 277.56187028 C71.48180358 277.56066294 69.86017593 277.55945695 68.23854828 277.55825233 C67.04161358 277.55734703 67.04161358 277.55734703 65.82049838 277.55642343 C60.18633671 277.55253763 54.55218452 277.55294046 48.91802216 277.55483818 C42.05565224 277.55695631 35.19333314 277.55176518 28.33097756 277.53722463 C24.82698221 277.52996131 21.32306103 277.52592001 17.81905937 277.53046799 C14.02754915 277.53526957 10.23617483 277.52466605 6.44467926 277.51237869 C4.76873806 277.51804768 4.76873806 277.51804768 3.05893946 277.52383119 C2.04948944 277.517999 1.04003942 277.5121668 0 277.50615788 C-0.87606982 277.5052911 -1.75213964 277.50442432 -2.65475702 277.50353128 C-4.75392914 277.25168228 -4.75392914 277.25168228 -6.75392914 275.25168228 C-7.00462747 273.25510263 -7.00462747 273.25510263 -7.00561142 270.74763107 C-7.01082691 269.79391538 -7.01604241 268.84019969 -7.02141595 267.85758352 C-7.01695451 266.80254456 -7.01249306 265.7475056 -7.00789642 264.66049576 C-7.0110164 263.54538825 -7.01413639 262.43028073 -7.01735091 261.28138208 C-7.02537141 257.51947632 -7.0189915 253.75773006 -7.0127182 249.99582291 C-7.01542627 247.30914711 -7.0189134 244.62248255 -7.02333832 241.93581009 C-7.03224992 235.38077716 -7.03030248 228.82578992 -7.02451304 222.27075517 C-7.02000348 216.94520528 -7.01938057 211.61966823 -7.02156067 206.29411697 C-7.02186714 205.53729178 -7.0221736 204.78046659 -7.02248935 204.0007073 C-7.02312878 202.46342082 -7.02377721 200.92613435 -7.02443454 199.38884789 C-7.030143 184.96037077 -7.02357185 170.53191903 -7.0128338 156.10344607 C-7.00389782 143.7125785 -7.00544972 131.32174839 -7.01467133 118.9308815 C-7.02536485 104.55541984 -7.02959363 90.17998044 -7.0234468 75.80451536 C-7.02280967 74.27275944 -7.02218093 72.74100352 -7.02156067 71.20924759 C-7.02125212 70.45551689 -7.02094357 69.70178618 -7.02062567 68.92521515 C-7.01889597 63.60363762 -7.02181973 58.28207416 -7.02651978 52.96049881 C-7.03211843 46.47874974 -7.03063364 39.99704913 -7.01995829 33.51530564 C-7.01468781 30.20572653 -7.01373759 26.89624543 -7.01925659 23.5866642 C-7.02468024 20.00531702 -7.0179167 16.42420105 -7.00789642 12.8428688 C-7.01235787 11.78782984 -7.01681931 10.73279088 -7.02141595 9.64578104 C-7.01620045 8.69206535 -7.01098496 7.73834966 -7.00561142 6.75573349 C-7.00528672 5.92826787 -7.00496201 5.10080226 -7.00462747 4.24826193 C-6.45724473 -0.11113388 -3.70528095 0.00137332 0 0 Z M2.58693045 9.50059015 C0.89487173 11.71032988 0.87290308 12.88541439 0.87692738 15.65010738 C0.87095476 16.55508024 0.86498215 17.4600531 0.85882854 18.39244938 C0.86756654 19.38729186 0.87630453 20.38213434 0.88530731 21.40712357 C0.88273926 22.46069046 0.8801712 23.51425735 0.87752533 24.59975052 C0.87254033 28.15860352 0.88916142 31.71703759 0.90549469 35.2758522 C0.90641321 37.85939298 0.90601405 40.44293452 0.90439892 43.02647495 C0.90280217 49.25847254 0.9166712 55.49034073 0.9359029 61.72230505 C0.95747789 68.9289191 0.95988577 76.13548765 0.96225739 83.34213638 C0.97801724 102.37450557 1.01990047 121.40684586 1.05857086 140.43918228 C1.12044586 182.94730728 1.18232086 225.45543228 1.24607086 269.25168228 C92.32607086 269.25168228 183.40607086 269.25168228 277.24607086 269.25168228 C277.24607086 197.31168228 277.24607086 125.37168228 277.24607086 51.25168228 C210.91607086 51.25168228 144.58607086 51.25168228 76.24607086 51.25168228 C76.24607086 38.05168228 76.24607086 24.85168228 76.24607086 11.25168228 C71.84533683 7.95113176 70.8538676 7.87404087 65.59738922 7.86349869 C64.9383812 7.85824173 64.27937317 7.85298477 63.6003952 7.84756851 C61.42865845 7.8343969 59.25765842 7.84309481 57.08591461 7.85324478 C55.57424021 7.85122345 54.06256676 7.84831153 52.55089569 7.84454727 C49.38596036 7.840128 46.22127934 7.84654287 43.0563736 7.860569 C38.99854809 7.87767559 34.94131723 7.86780832 30.88351345 7.84985161 C27.76340497 7.83901538 24.64343768 7.84245905 21.52332497 7.85023499 C20.02699017 7.85223669 18.53064258 7.84977872 17.03432274 7.84279633 C14.94432177 7.83518252 12.85528691 7.84678271 10.76535797 7.86349869 C9.57607193 7.86588547 8.38678589 7.86827225 7.16146088 7.87073135 C4.29438526 8.00182242 4.29438526 8.00182242 2.58693045 9.50059015 Z " fill="#605F5F" transform="translate(26.753929138183594,22.74831771850586)"/>
<path d="M0 0 C64.02 0 128.04 0 194 0 C194 11.22 194 22.44 194 34 C129.98 34 65.96 34 0 34 C0 22.78 0 11.56 0 0 Z " fill="#DCC8B0" transform="translate(111,32)"/>
<path d="M0 0 C2.97 0 5.94 0 9 0 C9.33 6.27 9.66 12.54 10 19 C11.65 17.68 13.3 16.36 15 15 C20.17611766 13.9753246 24.71130153 14.36736621 29.4375 16.6875 C34.37567196 21.14389909 37.75330136 25.03961626 38.3125 31.75 C38.12998346 38.28409228 35.78491551 44.47372857 31 49 C26.05971058 51.88557814 21.59377705 52.388983 15.98828125 51.52734375 C13.49028077 50.86480924 11.82391041 49.82391041 10 48 C9.34 48.99 8.68 49.98 8 51 C5.36 51 2.72 51 0 51 C0 34.17 0 17.34 0 0 Z " fill="#5B5B5B" transform="translate(668,132)"/>
<path d="M0 0 C4.59568544 3.17321137 8.20898499 6.27716862 9.625 11.8125 C10.22557918 19.13956596 8.96809309 24.71134738 4.5 30.625 C-0.07411337 34.10530365 -4.81932252 35.39524653 -10.4375 36.3125 C-16.33194988 35.30918938 -20.84922403 32.03426824 -24.375 27.25 C-27.28727237 22.00989087 -27.3371203 16.63215449 -26.375 10.8125 C-24.50510835 5.73825658 -21.35142546 1.83946002 -16.46484375 -0.56640625 C-10.93907896 -2.20864289 -5.3892194 -1.89620683 0 0 Z " fill="#5E5E5E" transform="translate(739.375,148.1875)"/>
<path d="M0 0 C4.38116379 2.68952137 7.45689006 6.51884099 9.3125 11.3125 C9.3125 12.6325 9.3125 13.9525 9.3125 15.3125 C5.912719 15.66285911 2.69783743 15.85010862 -0.6875 15.3125 C-3.1875 12.375 -3.1875 12.375 -4.6875 9.3125 C-8.62741113 7.34254444 -13.39257464 7.85942261 -17.6875 8.3125 C-21.36276233 10.4126499 -23.15894705 12.41801293 -24.6875 16.3125 C-25.04246078 19.61488851 -25.04246078 19.61488851 -25 23.1875 C-25.01675781 24.38117188 -25.03351563 25.57484375 -25.05078125 26.8046875 C-24.56039441 31.53982069 -23.21729033 34.7762275 -19.84375 38.1640625 C-17.14296607 39.6025235 -15.23767541 39.71263881 -12.1875 39.6875 C-11.2490625 39.69523437 -10.310625 39.70296875 -9.34375 39.7109375 C-6.23490985 39.24461148 -4.93192484 38.48801706 -2.6875 36.3125 C-2.0275 34.9925 -1.3675 33.6725 -0.6875 32.3125 C2.6125 32.3125 5.9125 32.3125 9.3125 32.3125 C9.17610004 37.76849846 6.9275959 40.71670192 3.328125 44.54296875 C-1.73266455 48.9858712 -7.50160133 49.89994087 -14.1015625 49.65625 C-20.34869155 48.82581593 -25.79201223 46.73784729 -30.125 42.0625 C-36.27722866 33.76657693 -36.64002013 25.40256788 -35.6875 15.3125 C-33.99187907 8.17958794 -28.40629414 3.53577155 -22.6875 -0.6875 C-16.04031605 -2.90322798 -6.43420467 -3.02212643 0 0 Z " fill="#5E5E5E" transform="translate(388.6875,134.6875)"/>
<path d="M0 0 C4.6382223 2.11568035 8.11066557 5.19618916 10 10 C10.49003223 14.46888495 10.37644172 18.88631904 10.25 23.375 C10.23195313 24.58800781 10.21390625 25.80101562 10.1953125 27.05078125 C10.14832216 30.0346679 10.08263372 33.01692279 10 36 C7.03 36 4.06 36 1 36 C0.67 34.68 0.34 33.36 0 32 C-1.175625 32.9590625 -1.175625 32.9590625 -2.375 33.9375 C-6.3323652 37.04685837 -8.75207823 37.34065693 -13.67578125 37.28515625 C-17.25079353 36.8465413 -19.3331253 35.34164608 -22 33 C-24.34965355 29.79592697 -24.54561533 26.89725235 -24 23 C-21.44240279 19.30569292 -19.25320899 16.53747757 -15 15 C-12.37573495 14.86041143 -9.86707253 14.81068631 -7.25 14.875 C-6.55261719 14.88402344 -5.85523438 14.89304688 -5.13671875 14.90234375 C-3.42433042 14.92580112 -1.71211996 14.96166896 0 15 C-0.60183749 12.97954558 -1.27306096 10.97888961 -2 9 C-4.82883747 7.58558126 -6.87376745 7.68099668 -10 8 C-10.6496875 8.99 -10.6496875 8.99 -11.3125 10 C-13 12 -13 12 -15.1796875 12.265625 C-17.4644882 12.25138948 -19.72191881 12.17193066 -22 12 C-21.86210108 9.03517326 -21.71055664 6.78765516 -19.66796875 4.5234375 C-13.34028632 -0.74193328 -8.04397786 -0.69564242 0 0 Z " fill="#5E5E5E" transform="translate(448,147)"/>
<path d="M0 0 C3.63 0 7.26 0 11 0 C13.97 6.93 16.94 13.86 20 21 C22.09466618 18.90533382 22.66849719 17.63059814 23.69140625 14.90234375 C23.99626953 14.10119141 24.30113281 13.30003906 24.61523438 12.47460938 C24.92783203 11.63736328 25.24042969 10.80011719 25.5625 9.9375 C26.18647601 8.27907088 26.81266212 6.62147106 27.44140625 4.96484375 C27.71670166 4.2287085 27.99199707 3.49257324 28.27563477 2.73413086 C29 1 29 1 30 0 C31.68608966 -0.07205511 33.37500659 -0.08386068 35.0625 -0.0625 C35.98160156 -0.05347656 36.90070312 -0.04445312 37.84765625 -0.03515625 C38.55792969 -0.02355469 39.26820313 -0.01195312 40 0 C38.61099325 4.36403369 36.97088421 8.53107448 35.13671875 12.7265625 C34.86285843 13.35549408 34.58899811 13.98442566 34.30683899 14.63241577 C33.43613963 16.63100721 32.56202915 18.6280818 31.6875 20.625 C26.8704067 31.64831237 26.8704067 31.64831237 22.14453125 42.7109375 C21.75241455 43.6395459 21.36029785 44.5681543 20.95629883 45.52490234 C19.85959476 48.21197132 19.85959476 48.21197132 19 52 C15.37 52 11.74 52 8 52 C10.16163513 45.06001352 12.8936214 38.56882431 16 32 C15.34 32 14.68 32 14 32 C12.16506789 27.92571263 10.33202798 23.85058097 8.50073242 19.7746582 C7.87755363 18.38835702 7.25385949 17.00228737 6.62963867 15.61645508 C5.73220214 13.62381755 4.83662564 11.63035316 3.94140625 9.63671875 C3.40201416 8.43748779 2.86262207 7.23825684 2.30688477 6.00268555 C1 3 1 3 0 0 Z " fill="#606060" transform="translate(542,147)"/>
<path d="M0 0 C2.64 0 5.28 0 8 0 C8.66 1.32 9.32 2.64 10 4 C10.78375 3.34 11.5675 2.68 12.375 2 C16.67115085 -0.85052663 21.02207368 -0.76894797 26 0 C29.37181531 1.41003186 31.23597576 2.47609707 32.89990234 5.79492188 C35.19923714 12.28045589 35.35563018 18.22951702 35.1875 25.0625 C35.16719727 26.64708008 35.16719727 26.64708008 35.14648438 28.26367188 C35.11147532 30.84267254 35.05768187 33.42140681 35 36 C31.7 36 28.4 36 25 36 C24.98541748 35.2886792 24.97083496 34.5773584 24.95581055 33.84448242 C24.88138994 30.62493668 24.78471 27.40643482 24.6875 24.1875 C24.66494141 23.06794922 24.64238281 21.94839844 24.61914062 20.79492188 C24.5659668 19.18520508 24.5659668 19.18520508 24.51171875 17.54296875 C24.48553467 16.55321045 24.45935059 15.56345215 24.43237305 14.54370117 C24.18771955 11.97922635 24.18771955 11.97922635 22.68676758 10.16918945 C19.91325936 8.24672153 17.26450042 8.7668214 14 9 C13.01 9.33 12.02 9.66 11 10 C9.85422931 12.98109845 9.81252172 16.03518052 9.68359375 19.203125 C9.64169922 20.1828125 9.59980469 21.1625 9.55664062 22.171875 C9.49766602 23.69554687 9.49766602 23.69554687 9.4375 25.25 C9.39431641 26.28125 9.35113281 27.3125 9.30664062 28.375 C9.20074318 30.9165387 9.09866557 33.45817196 9 36 C6.03 36 3.06 36 0 36 C0 24.12 0 12.24 0 0 Z " fill="#5D5D5D" transform="translate(624,147)"/>
<path d="M0 0 C3.54607568 -0.7193883 6.4810356 -0.93207697 10 0 C13.29400689 3.29926889 15.66392421 6.98038356 18 11 C20.83353499 8.32388362 22.90509636 6.18629233 24.6875 2.6875 C27 0 27 0 29.47265625 -0.37890625 C32.00831508 -0.37533992 34.47851737 -0.25984745 37 0 C35.13714646 5.62995737 31.44701207 9.56064806 27.703125 14.0625 C25.69049659 16.80266513 25.69049659 16.80266513 26.4453125 19.453125 C28.39024456 22.63929511 30.44667761 25.72077043 32.625 28.75 C37 34.88305215 37 34.88305215 37 36 C33.45392432 36.7193883 30.5189644 36.93207697 27 36 C23.70599311 32.70073111 21.33607579 29.01961644 19 25 C16.79167787 27.71189349 14.76652072 30.363953 12.875 33.3125 C9.62172543 36.35360449 8.93479972 36.38099055 4.6875 36.375 C3.1229461 36.27907115 1.55894559 36.16346226 0 36 C1.07955259 34.26847042 2.16382512 32.53988316 3.25 30.8125 C3.85328125 29.84957031 4.4565625 28.88664062 5.078125 27.89453125 C7 25 7 25 9.296875 22.44921875 C11.22481408 20.16465942 11.22481408 20.16465942 11.03125 17.5703125 C9.67830007 14.1981873 7.75371827 11.72067592 5.5 8.875 C1.09506399 3.28519196 1.09506399 3.28519196 0 0 Z " fill="#5E5E5E" transform="translate(752,147)"/>
<path d="M0 0 C2.97 0 5.94 0 9 0 C9 2.97 9 5.94 9 9 C12.3 9 15.6 9 19 9 C19 11.64 19 14.28 19 17 C15.7 17 12.4 17 9 17 C9.14017826 19.97953359 9.28686342 22.95849304 9.4375 25.9375 C9.47681641 26.78763672 9.51613281 27.63777344 9.55664062 28.51367188 C9.61948242 29.72700195 9.61948242 29.72700195 9.68359375 30.96484375 C9.72025146 31.7137085 9.75690918 32.46257324 9.79467773 33.23413086 C9.81771063 35.02461326 9.81771063 35.02461326 11 36 C13.32817964 36.36760731 15.6618385 36.70241581 18 37 C18 39.64 18 42.28 18 45 C7.25459555 45.68831772 7.25459555 45.68831772 3.375 43.1875 C0.71788848 40.74016045 0.06588378 39.31640052 -0.11352539 35.73168945 C-0.10828857 34.86761475 -0.10305176 34.00354004 -0.09765625 33.11328125 C-0.09443359 32.17548828 -0.09121094 31.23769531 -0.08789062 30.27148438 C-0.07951172 29.29501953 -0.07113281 28.31855469 -0.0625 27.3125 C-0.05798828 26.32443359 -0.05347656 25.33636719 -0.04882812 24.31835938 C-0.03704303 21.87884526 -0.02059011 19.43945311 0 17 C-1.98 17 -3.96 17 -6 17 C-6 14.69 -6 12.38 -6 10 C-4.02 10 -2.04 10 0 10 C0 6.7 0 3.4 0 0 Z " fill="#5B5B5B" transform="translate(519,138)"/>
<path d="M0 0 C3.3 0 6.6 0 10 0 C10 16.83 10 33.66 10 51 C6.7 51 3.4 51 0 51 C0 34.17 0 17.34 0 0 Z " fill="#606060" transform="translate(406,132)"/>
<path d="M0 0 C2.97 0 5.94 0 9 0 C9 16.17 9 32.34 9 49 C6.03 49 3.06 49 0 49 C0 32.83 0 16.66 0 0 Z " fill="#585858" transform="translate(605,134)"/>
<path d="M0 0 C0 3.3 0 6.6 0 10 C-3.80859375 10.63476562 -3.80859375 10.63476562 -7.6171875 11.26953125 C-10.34412478 11.83051301 -10.34412478 11.83051301 -12 15 C-12.36576054 17.31923274 -12.36576054 17.31923274 -12.4140625 19.88671875 C-12.47207031 21.2934082 -12.47207031 21.2934082 -12.53125 22.72851562 C-12.5621875 23.70498047 -12.593125 24.68144531 -12.625 25.6875 C-12.68300781 27.16959961 -12.68300781 27.16959961 -12.7421875 28.68164062 C-12.83645399 31.1207861 -12.9193159 33.56036747 -13 36 C-15.97 36 -18.94 36 -22 36 C-22 24.45 -22 12.9 -22 1 C-19.36 1 -16.72 1 -14 1 C-13.34 2.32 -12.68 3.64 -12 5 C-11.13375 4.175 -10.2675 3.35 -9.375 2.5 C-6.25207583 -0.13961448 -4.12269101 -0.49079655 0 0 Z " fill="#595959" transform="translate(489,147)"/>
<path d="M0 0 C2.97 0 5.94 0 9 0 C9 11.55 9 23.1 9 35 C6.03 35 3.06 35 0 35 C0 23.45 0 11.9 0 0 Z " fill="#575757" transform="translate(496,148)"/>
<path d="M0 0 C2.75329021 1.79562405 4.52627461 3.05254922 6 6 C6.37934197 11.02628116 6.02448301 13.92858056 3 18 C0.60713116 20.39286884 -0.09447094 20.32050616 -3.375 20.375 C-6.70887324 20.30532098 -7.72439157 20.19981611 -10.5 18.1875 C-13.23855909 14.19376799 -13.40900997 10.74451559 -13 6 C-9.30920537 0.34078157 -6.6962915 -0.56748233 0 0 Z " fill="#F6F6F6" transform="translate(690,155)"/>
<path d="M0 0 C3.97764662 0.63926464 5.13185681 1.37461494 7.5 4.5625 C8.69211438 8.13884313 8.75926574 10.80314683 8.5 14.5625 C7.34360194 16.87529611 6.32590172 18.73659828 4.5 20.5625 C-2.57246377 21.25815217 -2.57246377 21.25815217 -6 18.6875 C-8.1314073 14.24706812 -8.26937297 10.40082488 -7.5 5.5625 C-5.45860682 1.47971364 -4.51756452 0.72603715 0 0 Z " fill="#F7F7F7" transform="translate(730.5,154.4375)"/>
<path d="M0 0 C3.375 0.6875 3.375 0.6875 4.375 1.6875 C4.5625 4.625 4.5625 4.625 4.375 7.6875 C2.375 9.6875 2.375 9.6875 -1.125 9.9375 C-4.625 9.6875 -4.625 9.6875 -6.625 7.6875 C-6.9375 4.6875 -6.9375 4.6875 -6.625 1.6875 C-3.625 -0.3125 -3.625 -0.3125 0 0 Z " fill="#5D5D5D" transform="translate(501.625,132.3125)"/>
<path d="M0 0 C0.91007812 0.00902344 1.82015625 0.01804688 2.7578125 0.02734375 C3.45648438 0.03894531 4.15515625 0.05054688 4.875 0.0625 C4.5625 2.9375 4.5625 2.9375 3.875 6.0625 C0.20153229 8.51147847 -1.78856399 8.37787716 -6.125 8.0625 C-6.785 7.4025 -7.445 6.7425 -8.125 6.0625 C-7.875 3.5 -7.875 3.5 -7.125 1.0625 C-4.60024538 -0.19987731 -2.81299534 -0.03606404 0 0 Z " fill="#F5F5F5" transform="translate(442.125,167.9375)"/>
<path d="M0 0 C3.40038985 -0.35042185 6.6145931 -0.5412406 10 0 C12.625 3 12.625 3 14 6 C13.01 6 12.02 6 11 6 C7.83927895 7.25944653 7.83927895 7.25944653 6 10 C4.99421411 8.71283353 3.99553202 7.42011342 3 6.125 C2.443125 5.40570313 1.88625 4.68640625 1.3125 3.9453125 C0 2 0 2 0 0 Z " fill="#696969" transform="translate(752,147)"/>
<path d="M0 0 C0.99 0.33 1.98 0.66 3 1 C4.1875 3.5625 4.1875 3.5625 5 6 C4 7 4 7 1.71484375 7.09765625 C0.34005859 7.08025391 0.34005859 7.08025391 -1.0625 7.0625 C-1.98160156 7.05347656 -2.90070312 7.04445312 -3.84765625 7.03515625 C-4.55792969 7.02355469 -5.26820313 7.01195312 -6 7 C-4.02 4.69 -2.04 2.38 0 0 Z " fill="#585858" transform="translate(758,176)"/>
<path d="M0 0 C-3.625 5.75 -3.625 5.75 -7 8 C-7.66 7.34 -8.32 6.68 -9 6 C-8.75 3.4375 -8.75 3.4375 -8 1 C-5.29120665 -0.35439668 -2.99066732 -0.06501451 0 0 Z " fill="#EFEFEF" transform="translate(443,168)"/>
</svg>
